<svg width="32" height="32" viewBox="0 0 32 32" xmlns="http://www.w3.org/2000/svg">
  <circle cx="16" cy="16" r="16" fill="#F7931A" />
  <path fill="#FFF" d="M16 10v2h4c1 0 1.5.5 1.5 1.5s-.5 1.5-1.5 1.5h-1c1.25 0 2 .75 2 2s-1 2.5-2.5 2.5H16v2h-1.5v-2H13v-2h-1v-1h1v-6h-1V10h1.5V8H13v2h1.5V8H16v2zm-1.5 2v3h1.5c.5 0 .75-.25.75-.75S16.5 12 16 12h-1.5zm0 4v3.5h1.75c.75 0 1-.25 1-1S17 16 16.25 16H14.5z"/>
  <path fill="#FFF" d="M11 21c-.75 0-1.5-.5-2-1.25l1-1c.25.5.75.75 1.25.75.5 0 .75-.25.75-.5 0-.5-.5-.5-1.5-.75-1.25-.25-2-1-2-2.25 0-1.25 1-2 2.25-2C11.5 14 12 14.5 12.5 15l-1 .75c-.25-.25-.5-.5-.75-.5-.25 0-.5.25-.5.5 0 .25.5.5 1.5.75 1.25.25 2 1 2 2.25.25 1.25-.75 2.25-2.25 2.25z"/>
</svg>
